TITLE ""
FILE "Step2_Track45.mp3" MP3
  TRACK 01 AUDIO
    TITLE "Step2_Track45_01"
    INDEX 01 00:00:00
  TRACK 02 AUDIO
    TITLE "Step2_Track45_02"
    INDEX 01 00:00:26
  TRACK 03 AUDIO
    TITLE "Step2_Track45_03"
    INDEX 01 00:01:74
  TRACK 04 AUDIO
    TITLE "Step2_Track45_04"
    INDEX 01 00:02:60
  TRACK 05 AUDIO
    TITLE "Step2_Track45_05"
    INDEX 01 00:03:56
  TRACK 06 AUDIO
    TITLE "Step2_Track45_06"
    INDEX 01 00:03:63
  TRACK 07 AUDIO
    TITLE "Step2_Track45_07"
    INDEX 01 00:06:25
  TRACK 08 AUDIO
    TITLE "Step2_Track45_08"
    INDEX 01 00:06:50
  TRACK 09 AUDIO
    TITLE "Step2_Track45_09"
    INDEX 01 00:07:46
  TRACK 10 AUDIO
    TITLE "Step2_Track45_10"
    INDEX 01 00:07:48
  TRACK 11 AUDIO
    TITLE "Step2_Track45_11"
    INDEX 01 00:09:41
  TRACK 12 AUDIO
    TITLE "Step2_Track45_12"
    INDEX 01 00:09:72
  TRACK 13 AUDIO
    TITLE "Step2_Track45_13"
    INDEX 01 00:10:73
  TRACK 14 AUDIO
    TITLE "Step2_Track45_14"
    INDEX 01 00:11:10
  TRACK 15 AUDIO
    TITLE "Step2_Track45_15"
    INDEX 01 00:14:30
  TRACK 16 AUDIO
    TITLE "Step2_Track45_16"
    INDEX 01 00:14:55
  TRACK 17 AUDIO
    TITLE "Step2_Track45_17"
    INDEX 01 00:15:57
  TRACK 18 AUDIO
    TITLE "Step2_Track45_18"
    INDEX 01 00:15:59
  TRACK 19 AUDIO
    TITLE "Step2_Track45_19"
    INDEX 01 00:18:02
  TRACK 20 AUDIO
    TITLE "Step2_Track45_20"
    INDEX 01 00:18:42
  TRACK 21 AUDIO
    TITLE "Step2_Track45_21"
    INDEX 01 00:19:33
  TRACK 22 AUDIO
    TITLE "Step2_Track45_22"
    INDEX 01 00:19:55
  TRACK 23 AUDIO
    TITLE "Step2_Track45_23"
    INDEX 01 00:22:28
  TRACK 24 AUDIO
    TITLE "Step2_Track45_24"
    INDEX 01 00:22:41
  TRACK 25 AUDIO
    TITLE "Step2_Track45_25"
    INDEX 01 00:23:45
  TRACK 26 AUDIO
    TITLE "Step2_Track45_26"
    INDEX 01 00:23:51
  TRACK 27 AUDIO
    TITLE "Step2_Track45_27"
    INDEX 01 00:26:74
  TRACK 28 AUDIO
    TITLE "Step2_Track45_28"
    INDEX 01 00:27:09
  TRACK 29 AUDIO
    TITLE "Step2_Track45_29"
    INDEX 01 00:28:13
  TRACK 30 AUDIO
    TITLE "Step2_Track45_30"
    INDEX 01 00:28:16
  TRACK 31 AUDIO
    TITLE "Step2_Track45_31"
    INDEX 01 00:30:21
  TRACK 32 AUDIO
    TITLE "Step2_Track45_32"
    INDEX 01 00:30:43
  TRACK 33 AUDIO
    TITLE "Step2_Track45_33"
    INDEX 01 00:31:23
  TRACK 34 AUDIO
    TITLE "Step2_Track45_34"
    INDEX 01 00:31:36
  TRACK 35 AUDIO
    TITLE "Step2_Track45_35"
    INDEX 01 00:35:05
  TRACK 36 AUDIO
    TITLE "Step2_Track45_36"
    INDEX 01 00:35:22
  TRACK 37 AUDIO
    TITLE "Step2_Track45_37"
    INDEX 01 00:36:24
  TRACK 38 AUDIO
    TITLE "Step2_Track45_38"
    INDEX 01 00:36:26
  TRACK 39 AUDIO
    TITLE "Step2_Track45_39"
    INDEX 01 00:38:17
  TRACK 40 AUDIO
    TITLE "Step2_Track45_40"
    INDEX 01 00:38:46
  TRACK 41 AUDIO
    TITLE "Step2_Track45_41"
    INDEX 01 00:39:40
  TRACK 42 AUDIO
    TITLE "Step2_Track45_42"
    INDEX 01 00:39:42
  TRACK 43 AUDIO
    TITLE "Step2_Track45_43"
    INDEX 01 00:42:05
